<?xml version="1.0" encoding="UTF-8"?>
<svg version="1.1" xmlns="http://www.w3.org/2000/svg" width="32" height="32">
<path d="M0 0 C3.92061103 2.19278684 6.97809862 4.95619724 9 9 C10.34009135 20.6039728 10.34009135 20.6039728 7.5078125 25.66796875 C4.31531972 29.30423128 1.94759708 31.77508065 -2.9765625 32.34375 C-14.03729021 32.81744284 -14.03729021 32.81744284 -18.8125 28.625 C-23.61624433 23.64713274 -23.50615879 19.37124985 -23.4921875 12.57421875 C-22.75174943 7.19722801 -20.18398445 4.28471177 -16 1 C-11.26503433 -1.36748284 -5.10642777 -0.70318022 0 0 Z " fill="#5A0258" transform="translate(23,0)"/>
<path d="M0 0 C3.92061103 2.19278684 6.97809862 4.95619724 9 9 C10.34009135 20.6039728 10.34009135 20.6039728 7.5078125 25.66796875 C4.31531972 29.30423128 1.94759708 31.77508065 -2.9765625 32.34375 C-14.03729021 32.81744284 -14.03729021 32.81744284 -18.8125 28.625 C-23.61624433 23.64713274 -23.50615879 19.37124985 -23.4921875 12.57421875 C-22.75174943 7.19722801 -20.18398445 4.28471177 -16 1 C-11.26503433 -1.36748284 -5.10642777 -0.70318022 0 0 Z M-14 2 C-14 2.66 -14 3.32 -14 4 C-15.65 4.66 -17.3 5.32 -19 6 C-19 7.65 -19 9.3 -19 11 C-19.99 11.33 -20.98 11.66 -22 12 C-21.68991116 13.60463449 -21.37683713 15.20869231 -21.0625 16.8125 C-20.88847656 17.70582031 -20.71445312 18.59914063 -20.53515625 19.51953125 C-20.02258847 22.11397171 -20.02258847 22.11397171 -19 25 C-18.34 25 -17.68 25 -17 25 C-17 25.66 -17 26.32 -17 27 C-13.77945096 29.30039217 -10.96270419 30.71004604 -7 31 C-3.75763432 30.14228658 -3.75763432 30.14228658 -1 29 C-1 28.34 -1 27.68 -1 27 C-0.236875 26.95875 0.52625 26.9175 1.3125 26.875 C4.2378873 26.22303909 4.2378873 26.22303909 5.8125 23.375 C7.90775311 17.4200701 7.26589624 12.80635911 5 7 C4.34 7 3.68 7 3 7 C3 6.34 3 5.68 3 5 C-2.66209748 1.22526834 -7.38834482 0.65068262 -14 2 Z " fill="#050208" transform="translate(23,0)"/>
<path d="M0 0 C0.99 0 1.98 0 3 0 C3.33 2.31 3.66 4.62 4 7 C4.6496875 6.2575 4.6496875 6.2575 5.3125 5.5 C7 4 7 4 10 4 C9.34 5.32 8.68 6.64 8 8 C7.34 8 6.68 8 6 8 C9.36836083 12.06637199 9.36836083 12.06637199 14.3125 13.3125 C15.199375 13.209375 16.08625 13.10625 17 13 C16.67 14.65 16.34 16.3 16 18 C14.35 18.33 12.7 18.66 11 19 C11 19.66 11 20.32 11 21 C6.83308745 22.6157416 4.37940856 23.51925836 0.1875 21.6875 C-0.864375 21.130625 -1.91625 20.57375 -3 20 C-3.66 19.67 -4.32 19.34 -5 19 C-5 18.34 -5 17.68 -5 17 C-5.66 16.67 -6.32 16.34 -7 16 C-7 14.68 -7 13.36 -7 12 C-3.75728494 12.5590888 -2.06942576 13.4132178 0 16 C0 16.66 0 17.32 0 18 C3.94727588 18.17942163 6.5980513 18.09350689 10 16 C9.195625 15.525625 8.39125 15.05125 7.5625 14.5625 C5 13 5 13 4 12 C3.67 12.99 3.34 13.98 3 15 C2.01 15 1.02 15 0 15 C0 10.05 0 5.1 0 0 Z " fill="#155468" transform="translate(11,8)"/>
<path d="M0 0 C0 0.66 0 1.32 0 2 C0.66 2 1.32 2 2 2 C3.3271261 5.9813783 3.06915913 9.85045227 3 14 C1.3125 14.75 1.3125 14.75 -1 15 C-3.75 13.1875 -3.75 13.1875 -6 11 C-6 9 -6 9 -4 6.875 C-3.34 6.25625 -2.68 5.6375 -2 5 C-2.78375 5.474375 -3.5675 5.94875 -4.375 6.4375 C-5.88948678 7.33898023 -7.4235897 8.21179485 -9 9 C-9 6.36 -9 3.72 -9 1 C-9.99 1 -10.98 1 -12 1 C-12 0.34 -12 -0.32 -12 -1 C-7.47907032 -2.45606519 -4.48351204 -1.27032841 0 0 Z " fill="#0C080D" transform="translate(23,7)"/>
<path d="M0 0 C0 4.95 0 9.9 0 15 C0.99 15 1.98 15 3 15 C3.33 13.68 3.66 12.36 4 11 C4.4125 11.45375 4.825 11.9075 5.25 12.375 C7.06408095 14.05950374 8.75285627 14.99265971 11 16 C7.91440696 18.26881841 6.57790624 19.05451946 2.6875 18.6875 C1.800625 18.460625 0.91375 18.23375 0 18 C0 17.34 0 16.68 0 16 C-0.99 15.67 -1.98 15.34 -3 15 C-5.16264774 11.87539531 -5.16600589 9.51823667 -4.75 5.8125 C-4.61851562 4.49185547 -4.61851562 4.49185547 -4.484375 3.14453125 C-4.32453125 2.43683594 -4.1646875 1.72914062 -4 1 C-2 0 -2 0 0 0 Z " fill="#050508" transform="translate(11,8)"/>
<path d="M0 0 C0.99 0 1.98 0 3 0 C3.33 2.31 3.66 4.62 4 7 C4.433125 6.505 4.86625 6.01 5.3125 5.5 C7 4 7 4 10 4 C9.34 5.32 8.68 6.64 8 8 C7.34 8 6.68 8 6 8 C7.98 10.97 7.98 10.97 10 14 C5.125 13.125 5.125 13.125 4 12 C3.67 12.99 3.34 13.98 3 15 C2.01 15 1.02 15 0 15 C0 10.05 0 5.1 0 0 Z " fill="#DADADA" transform="translate(11,8)"/>
<path d="M0 0 C0.99 0.33 1.98 0.66 3 1 C2.34 1 1.68 1 1 1 C1 1.66 1 2.32 1 3 C0.34 3 -0.32 3 -1 3 C-1 3.66 -1 4.32 -1 5 C-0.01 4.67 0.98 4.34 2 4 C2 4.66 2 5.32 2 6 C0.68 6.33 -0.64 6.66 -2 7 C-2 10.96 -2 14.92 -2 19 C-2.66 19 -3.32 19 -4 19 C-4.33 19.99 -4.66 20.98 -5 22 C-6.80317221 18.03302114 -7.49202991 14.3177458 -8 10 C-7.01 9.67 -6.02 9.34 -5 9 C-5 7.35 -5 5.7 -5 4 C-3.35 3.34 -1.7 2.68 0 2 C0 1.34 0 0.68 0 0 Z " fill="#360B4E" transform="translate(9,2)"/>
<path d="M0 0 C3.16301431 0.47924459 5.46088003 1.2219052 8.375 2.625 C12.47519416 4.18024606 14.77728693 3.94795599 19 3 C19 2.34 19 1.68 19 1 C20.32 0.67 21.64 0.34 23 0 C22.67 0.66 22.34 1.32 22 2 C21.34 2 20.68 2 20 2 C20 2.66 20 3.32 20 4 C15.45266483 6.60895497 11.1316549 6.82300126 6 6 C3.42497403 4.59083224 2.03056592 3.19087376 0 1 C0 0.67 0 0.34 0 0 Z " fill="#020E10" transform="translate(3,26)"/>
<path d="M0 0 C-0.33 1.65 -0.66 3.3 -1 5 C-3.64 5 -6.28 5 -9 5 C-8.34 4.34 -7.68 3.68 -7 3 C-7.99 2.34 -8.98 1.68 -10 1 C-6.52674819 -0.1577506 -3.63932552 -0.06866652 0 0 Z " fill="#293B5B" transform="translate(28,21)"/>
<path d="M0 0 C3.24271506 0.5590888 4.93057424 1.4132178 7 4 C7 4.66 7 5.32 7 6 C5.35 6.33 3.7 6.66 2 7 C2 6.34 2 5.68 2 5 C1.34 4.67 0.68 4.34 0 4 C0 2.68 0 1.36 0 0 Z " fill="#203864" transform="translate(4,20)"/>
<path d="M0 0 C0.99 0 1.98 0 3 0 C3 2.31 3 4.62 3 7 C1.68 7.33 0.36 7.66 -1 8 C-0.67 5.36 -0.34 2.72 0 0 Z " fill="#39156E" transform="translate(27,13)"/>
<path d="M0 0 C0.66 0 1.32 0 2 0 C2 0.66 2 1.32 2 2 C2.66 2 3.32 2 4 2 C4.33 3.98 4.66 5.96 5 8 C4.34 8 3.68 8 3 8 C3 9.98 3 11.96 3 14 C2.67 14 2.34 14 2 14 C1.67 11.36 1.34 8.72 1 6 C1.66 6 2.32 6 3 6 C3 5.01 3 4.02 3 3 C2.34 3 1.68 3 1 3 C0.67 2.01 0.34 1.02 0 0 Z " fill="#3A064F" transform="translate(24,5)"/>
<path d="M0 0 C1.09658936 3.28976808 0.79953138 4.71303767 0 8 C-0.66 8 -1.32 8 -2 8 C-2 5.69 -2 3.38 -2 1 C-1.34 0.67 -0.68 0.34 0 0 Z " fill="#480B74" transform="translate(5,10)"/>
</svg>
