<svg xmlns="http://www.w3.org/2000/svg" xmlns:xlink="http://www.w3.org/1999/xlink" width="400" zoomAndPan="magnify" viewBox="0 0 300 74.999997" height="100" preserveAspectRatio="xMidYMid meet" version="1.0"><defs><g/></defs><g fill="#ffffff" fill-opacity="1"><g transform="translate(-1.877922, 56.249991)"><g><path d="M 3.3125 0 L 3.3125 -43.75 L 11.75 -43.75 L 11.75 -18.25 L 24.4375 -31.25 L 35.875 -31.25 L 20.5 -16.0625 L 36.375 0 L 24.75 0 L 11.75 -13.5625 L 11.75 0 Z M 3.3125 0 "/></g></g></g><g fill="#ffffff" fill-opacity="1"><g transform="translate(33.87208, 56.249991)"><g><path d="M 3.3125 0 L 3.3125 -43.75 L 11.75 -43.75 L 11.75 0 Z M 3.3125 0 "/></g></g></g><g fill="#ffffff" fill-opacity="1"><g transform="translate(48.934582, 56.249991)"><g><path d="M 18.75 -13.8125 C 17.164062 -13.8125 15.625 -13.90625 14.125 -14.09375 C 12.625 -14.28125 11.414062 -14.519531 10.5 -14.8125 C 10.582031 -12.394531 11.457031 -10.53125 13.125 -9.21875 C 14.789062 -7.90625 17.039062 -7.25 19.875 -7.25 C 22.457031 -7.25 24.664062 -7.769531 26.5 -8.8125 C 28.332031 -9.851562 29.8125 -10.957031 30.9375 -12.125 L 30.9375 -2.9375 C 29.601562 -1.894531 27.914062 -1.03125 25.875 -0.34375 C 23.832031 0.34375 21.539062 0.6875 19 0.6875 C 15.289062 0.6875 12.144531 -0.03125 9.5625 -1.46875 C 6.976562 -2.90625 5.019531 -4.832031 3.6875 -7.25 C 2.351562 -9.664062 1.6875 -12.375 1.6875 -15.375 C 1.6875 -18.582031 2.382812 -21.425781 3.78125 -23.90625 C 5.175781 -26.382812 7.144531 -28.34375 9.6875 -29.78125 C 12.226562 -31.21875 15.1875 -31.9375 18.5625 -31.9375 C 21.269531 -31.9375 23.550781 -31.5 25.40625 -30.625 C 27.257812 -29.75 28.664062 -28.582031 29.625 -27.125 C 30.582031 -25.664062 31.0625 -24.082031 31.0625 -22.375 C 31.0625 -20.789062 30.6875 -19.375 29.9375 -18.125 C 29.1875 -16.875 28.207031 -15.9375 27 -15.3125 C 26.164062 -14.851562 25.21875 -14.519531 24.15625 -14.3125 C 23.09375 -14.101562 22.070312 -13.96875 21.09375 -13.90625 C 20.113281 -13.84375 19.332031 -13.8125 18.75 -13.8125 Z M 16.75 -19.75 C 18.457031 -19.75 19.800781 -19.90625 20.78125 -20.21875 C 21.757812 -20.53125 22.25 -21.164062 22.25 -22.125 C 22.25 -23.082031 21.84375 -23.738281 21.03125 -24.09375 C 20.21875 -24.445312 19.269531 -24.625 18.1875 -24.625 C 16.601562 -24.625 15.207031 -24.269531 14 -23.5625 C 12.789062 -22.851562 11.894531 -21.75 11.3125 -20.25 C 11.851562 -20.125 12.570312 -20.007812 13.46875 -19.90625 C 14.363281 -19.800781 15.457031 -19.75 16.75 -19.75 Z M 16.75 -19.75 "/></g></g></g><g fill="#ffffff" fill-opacity="1"><g transform="translate(82.372087, 56.249991)"><g><path d="M 23.75 0 L 23.75 -23.625 L 11.75 -23.625 L 11.75 0 L 3.3125 0 L 3.3125 -31.25 L 32.1875 -31.25 L 32.1875 0 Z M 23.75 0 "/></g></g></g></svg>