<svg xmlns="http://www.w3.org/2000/svg" xmlns:xlink="http://www.w3.org/1999/xlink" width="500" zoomAndPan="magnify" viewBox="0 0 375 374.999991" height="500" preserveAspectRatio="xMidYMid meet" version="1.0"><defs><g/></defs><g fill="#ffffff" fill-opacity="1"><g transform="translate(9.065158, 243.375102)"><g><path d="M 9.871094 0 L 35.015625 0 L 35.015625 -40.417969 L 73.753906 0 L 108.398438 0 L 61.089844 -47.867188 L 106.90625 -93.125 L 72.824219 -93.125 L 35.015625 -54.386719 L 35.015625 -130.375 L 9.871094 -130.375 Z M 9.871094 0 "/></g></g></g><g fill="#ffffff" fill-opacity="1"><g transform="translate(115.600381, 243.375102)"><g><path d="M 9.871094 0 L 35.015625 0 L 35.015625 -130.375 L 9.871094 -130.375 Z M 9.871094 0 "/></g></g></g><g fill="#ffffff" fill-opacity="1"><g transform="translate(160.486727, 243.375102)"><g><path d="M 55.875 -41.160156 C 61.089844 -41.160156 72.824219 -41.535156 80.460938 -45.632812 C 87.539062 -49.355469 92.566406 -57.179688 92.566406 -66.675781 C 92.566406 -81.949219 79.34375 -95.175781 55.316406 -95.175781 C 24.957031 -95.175781 5.027344 -74.3125 5.027344 -45.816406 C 5.027344 -18.996094 23.28125 2.046875 56.621094 2.046875 C 71.707031 2.046875 84.183594 -2.609375 92.195312 -8.753906 L 92.195312 -36.132812 C 85.488281 -29.242188 74.6875 -21.605469 59.226562 -21.605469 C 42.277344 -21.605469 31.847656 -29.800781 31.289062 -44.140625 C 36.691406 -42.464844 46.375 -41.160156 55.875 -41.160156 Z M 49.914062 -58.855469 C 42.277344 -58.855469 36.878906 -59.601562 33.710938 -60.34375 C 37.25 -69.285156 44.699219 -73.382812 54.199219 -73.382812 C 60.53125 -73.382812 66.304688 -71.519531 66.304688 -65.933594 C 66.304688 -60.160156 60.160156 -58.855469 49.914062 -58.855469 Z M 49.914062 -58.855469 "/></g></g></g><g fill="#ffffff" fill-opacity="1"><g transform="translate(260.130694, 243.375102)"><g><path d="M 70.773438 0 L 95.917969 0 L 95.917969 -93.125 L 9.871094 -93.125 L 9.871094 0 L 35.015625 0 L 35.015625 -70.402344 L 70.773438 -70.402344 Z M 70.773438 0 "/></g></g></g></svg>